  999
DXF file created by gear template generator. 2025-06-12T17:14:14
  999
Chain link:  Hole spacing:20  Width:28 Overall length:8 Corner chamfer :0
  999
Chain block: Hole spacing:40  Width:49 Overall length:9 Corner chamfer :0
  0
SECTION
  2
HEADER
  9
$MEASUREMENT
  70
1
  0
ENDSEC
  0
SECTION
  2
TABLES
  0
TABLE
  2
LTYPE
  70
1
  0
LTYPE
  2
Continuous
  3
_
  70
0
  72
65
  73
0
  40
0.0
  0
ENDTAB
  0
TABLE
  2
LAYER
  70
4
  0
LAYER
  2
profile
  70
0
  62
7
  6
Continuous
  0
LAYER
  2
construction
  70
0
  62
5
  6
Continuous
  0
LAYER
  2
grid
  70
0
  62
3
  6
Continuous
  0
LAYER
  2
labels
  70
0
  62
1
  6
Continuous
  0
ENDTAB
  0
TABLE
  2
STYLE
  70
1
  0
STYLE
  2
ARIAL
  3
Arial.ttf
  70
0
  40
0.0
  41
1.0
  50
0.0
  71
0
  42
1.0
  0
ENDTAB
  0
ENDSEC
  0
SECTION
  2
ENTITIES
  0
CIRCLE
  8
c
  10
115.52215
  20
115.52215
  30
0.0
  40
105.52109
 0
LINE
 8
c
 10
216.08858
 20
125.09569
 30
0
 11
225.04808
 21
125.9486
 31
 0
 0
LINE
 8
c
 10
216.08858
 20
105.9486
 30
0
 11
225.04808
 21
105.09569
 31
 0
 0
LINE
 8
c
 10
194.94817
 20
177.94624
 30
0
 11
202.02425
 21
183.50763
 31
 0
 0
LINE
 8
c
 10
205.29986
 20
161.83869
 30
0
 11
213.29819
 21
165.96504
 31
 0
 0
LINE
 8
c
 10
148.59055
 20
210.97759
 30
0
 11
151.53662
 21
219.48174
 31
 0
 0
LINE
 8
c
 10
166.00736
 20
203.0236
 30
0
 11
170.5051
 21
210.81913
 31
 0
 0
LINE
 8
c
 10
91.73395
 20
213.7025
 30
0
 11
89.61465
 21
222.44942
 31
 0
 0
LINE
 8
c
 10
110.68615
 20
216.42742
 30
0
 11
110.25531
 21
225.4171
 31
 0
 0
LINE
 8
c
 10
42.42993
 20
185.25585
 30
0
 11
35.91813
 21
191.46844
 31
 0
 0
LINE
 8
c
 10
56.90034
 20
197.79452
 30
0
 11
51.6777
 21
205.1242
 31
 0
 0
LINE
 8
c
 10
16.33218
 20
134.66924
 30
0
 11
7.49531
 21
136.37506
 31
 0
 0
LINE
 8
c
 10
21.72654
 20
153.04073
 30
0
 11
13.37026
 21
156.38328
 31
 0
 0
LINE
 8
c
 10
21.72654
 20
78.00356
 30
0
 11
13.37026
 21
74.66101
 31
 0
 0
LINE
 8
c
 10
16.33218
 20
96.37506
 30
0
 11
7.49531
 21
94.66924
 31
 0
 0
LINE
 8
c
 10
56.90034
 20
33.24977
 30
0
 11
51.6777
 21
25.92009
 31
 0
 0
LINE
 8
c
 10
42.42993
 20
45.78844
 30
0
 11
35.91813
 21
39.57585
 31
 0
 0
LINE
 8
c
 10
110.68615
 20
14.61687
 30
0
 11
110.25531
 21
5.62719
 31
 0
 0
LINE
 8
c
 10
91.73395
 20
17.34179
 30
0
 11
89.61465
 21
8.59487
 31
 0
 0
LINE
 8
c
 10
166.00736
 20
28.02069
 30
0
 11
170.5051
 21
20.22516
 31
 0
 0
LINE
 8
c
 10
148.59055
 20
20.0667
 30
0
 11
151.53662
 21
11.56255
 31
 0
 0
LINE
 8
c
 10
205.29986
 20
69.2056
 30
0
 11
213.29819
 21
65.07925
 31
 0
 0
LINE
 8
c
 10
194.94817
 20
53.09805
 30
0
 11
202.02425
 21
47.53666
 31
 0
 0
LINE
 8
a
 10
62.7616
 20
115.52215
 30
0
 11
168.28269
 21
115.52215
 31
 0
 0
LINE
 8
a
 10
115.52215
 20
62.7616
 30
0
 11
115.52215
 21
168.28269
 31
 0
  0
POLYLINE
  8
a
  66
1
  10
0.0
  20
0.0
  70
1
  0
VERTEX
  8
a
  10
214.98281
  20
102.47222
  30
0.0
  70
0
  0
VERTEX
  8
a
  10
214.33633
  20
104.23289
  30
0.0
  70
0
  0
VERTEX
  8
a
  10
214.23116
  20
106.10554
  30
0.0
  70
0
  0
VERTEX
  8
a
  10
214.67645
  20
107.92751
  30
0.0
  70
0
  0
VERTEX
  8
a
  10
215.63351
  20
109.54055
  30
0.0
  70
0
  0
VERTEX
  8
a
  10
217.01922
  20
110.80455
  30
0.0
  70
0
  0
VERTEX
  8
a
  10
218.7132
  20
111.60972
  30
0.0
  70
0
  0
VERTEX
  8
a
  10
220.56833
  20
111.88611
  30
0.0
  70
0
  0
VERTEX
  8
a
  10
221.04324
  20
111.89738
  30
0.0
  70
0
  0
VERTEX
  8
a
  10
221.98139
  20
112.02089
  30
0.0
  70
0
  0
VERTEX
  8
a
  10
222.85562
  20
112.383
  30
0.0
  70
0
  0
VERTEX
  8
a
  10
223.60633
  20
112.95905
  30
0.0
  70
0
  0
VERTEX
  8
a
  10
224.18238
  20
113.70976
  30
0.0
  70
0
  0
VERTEX
  8
a
  10
224.54449
  20
114.58399
  30
0.0
  70
0
  0
VERTEX
  8
a
  10
224.668
  20
115.52215
  30
0.0
  70
0
  0
VERTEX
  8
a
  10
224.54449
  20
116.4603
  30
0.0
  70
0
  0
VERTEX
  8
a
  10
224.18238
  20
117.33453
  30
0.0
  70
0
  0
VERTEX
  8
a
  10
223.60633
  20
118.08524
  30
0.0
  70
0
  0
VERTEX
  8
a
  10
222.85562
  20
118.66129
  30
0.0
  70
0
  0
VERTEX
  8
a
  10
221.98139
  20
119.0234
  30
0.0
  70
0
  0
VERTEX
  8
a
  10
221.04324
  20
119.14691
  30
0.0
  70
0
  0
VERTEX
  8
a
  10
220.56833
  20
119.15818
  30
0.0
  70
0
  0
VERTEX
  8
a
  10
218.7132
  20
119.43457
  30
0.0
  70
0
  0
VERTEX
  8
a
  10
217.01922
  20
120.23974
  30
0.0
  70
0
  0
VERTEX
  8
a
  10
215.63351
  20
121.50374
  30
0.0
  70
0
  0
VERTEX
  8
a
  10
214.67645
  20
123.11678
  30
0.0
  70
0
  0
VERTEX
  8
a
  10
214.23116
  20
124.93876
  30
0.0
  70
0
  0
VERTEX
  8
a
  10
214.33633
  20
126.8114
  30
0.0
  70
0
  0
VERTEX
  8
a
  10
214.98281
  20
128.57207
  30
0.0
  70
0
  0
VERTEX
  8
a
  10
206.2491
  20
158.31635
  30
0.0
  70
0
  0
VERTEX
  8
a
  10
204.75336
  20
159.448
  30
0.0
  70
0
  0
VERTEX
  8
a
  10
203.65246
  20
160.96651
  30
0.0
  70
0
  0
VERTEX
  8
a
  10
203.04202
  20
162.74
  30
0.0
  70
0
  0
VERTEX
  8
a
  10
202.97508
  20
164.6144
  30
0.0
  70
0
  0
VERTEX
  8
a
  10
203.45744
  20
166.42691
  30
0.0
  70
0
  0
VERTEX
  8
a
  10
204.44721
  20
168.0201
  30
0.0
  70
0
  0
VERTEX
  8
a
  10
205.85841
  20
169.25557
  30
0.0
  70
0
  0
VERTEX
  8
a
  10
206.25183
  20
169.5218
  30
0.0
  70
0
  0
VERTEX
  8
a
  10
206.97429
  20
170.13292
  30
0.0
  70
0
  0
VERTEX
  8
a
  10
207.51396
  20
170.91019
  30
0.0
  70
0
  0
VERTEX
  8
a
  10
207.83407
  20
171.80065
  30
0.0
  70
0
  0
VERTEX
  8
a
  10
207.9128
  20
172.74363
  30
0.0
  70
0
  0
VERTEX
  8
a
  10
207.74479
  20
173.67485
  30
0.0
  70
0
  0
VERTEX
  8
a
  10
207.34148
  20
174.53085
  30
0.0
  70
0
  0
VERTEX
  8
a
  10
206.73037
  20
175.25331
  30
0.0
  70
0
  0
VERTEX
  8
a
  10
205.9531
  20
175.79298
  30
0.0
  70
0
  0
VERTEX
  8
a
  10
205.06264
  20
176.11309
  30
0.0
  70
0
  0
VERTEX
  8
a
  10
204.11966
  20
176.19182
  30
0.0
  70
0
  0
VERTEX
  8
a
  10
203.18844
  20
176.02381
  30
0.0
  70
0
  0
VERTEX
  8
a
  10
202.33244
  20
175.6205
  30
0.0
  70
0
  0
VERTEX
  8
a
  10
201.92683
  20
175.37323
  30
0.0
  70
0
  0
VERTEX
  8
a
  10
200.21677
  20
174.60279
  30
0.0
  70
0
  0
VERTEX
  8
a
  10
198.35639
  20
174.3643
  30
0.0
  70
0
  0
VERTEX
  8
a
  10
196.50729
  20
174.67847
  30
0.0
  70
0
  0
VERTEX
  8
a
  10
194.83009
  20
175.51802
  30
0.0
  70
0
  0
VERTEX
  8
a
  10
193.47045
  20
176.81003
  30
0.0
  70
0
  0
VERTEX
  8
a
  10
192.54649
  20
178.44226
  30
0.0
  70
0
  0
VERTEX
  8
a
  10
192.13846
  20
180.27294
  30
0.0
  70
0
  0
VERTEX
  8
a
  10
168.71023
  20
200.57362
  30
0.0
  70
0
  0
VERTEX
  8
a
  10
166.84011
  20
200.71696
  30
0.0
  70
0
  0
VERTEX
  8
a
  10
165.093
  20
201.39923
  30
0.0
  70
0
  0
VERTEX
  8
a
  10
163.62066
  20
202.56115
  30
0.0
  70
0
  0
VERTEX
  8
a
  10
162.55096
  20
204.10181
  30
0.0
  70
0
  0
VERTEX
  8
a
  10
161.97683
  20
205.88737
  30
0.0
  70
0
  0
VERTEX
  8
a
  10
161.94813
  20
207.76275
  30
0.0
  70
0
  0
VERTEX
  8
a
  10
162.46736
  20
209.56505
  30
0.0
  70
0
  0
VERTEX
  8
a
  10
162.6544
  20
210.00172
  30
0.0
  70
0
  0
VERTEX
  8
a
  10
162.93177
  20
210.90641
  30
0.0
  70
0
  0
VERTEX
  8
a
  10
162.96555
  20
211.85206
  30
0.0
  70
0
  0
VERTEX
  8
a
  10
162.75342
  20
212.77423
  30
0.0
  70
0
  0
VERTEX
  8
a
  10
162.30984
  20
213.61008
  30
0.0
  70
0
  0
VERTEX
  8
a
  10
161.66504
  20
214.30264
  30
0.0
  70
0
  0
VERTEX
  8
a
  10
160.86297
  20
214.80471
  30
0.0
  70
0
  0
VERTEX
  8
a
  10
159.95829
  20
215.08209
  30
0.0
  70
0
  0
VERTEX
  8
a
  10
159.01263
  20
215.11586
  30
0.0
  70
0
  0
VERTEX
  8
a
  10
158.09046
  20
214.90373
  30
0.0
  70
0
  0
VERTEX
  8
a
  10
157.25462
  20
214.46015
  30
0.0
  70
0
  0
VERTEX
  8
a
  10
156.56206
  20
213.81536
  30
0.0
  70
0
  0
VERTEX
  8
a
  10
156.05999
  20
213.01329
  30
0.0
  70
0
  0
VERTEX
  8
a
  10
155.85245
  20
212.58598
  30
0.0
  70
0
  0
VERTEX
  8
a
  10
154.83039
  20
211.01332
  30
0.0
  70
0
  0
VERTEX
  8
a
  10
153.39428
  20
209.80689
  30
0.0
  70
0
  0
VERTEX
  8
a
  10
151.66886
  20
209.07149
  30
0.0
  70
0
  0
VERTEX
  8
a
  10
149.80401
  20
208.871
  30
0.0
  70
0
  0
VERTEX
  8
a
  10
147.9617
  20
209.22283
  30
0.0
  70
0
  0
VERTEX
  8
a
  10
146.30197
  20
210.09642
  30
0.0
  70
0
  0
VERTEX
  8
a
  10
144.96897
  20
211.41588
  30
0.0
  70
0
  0
VERTEX
  8
a
  10
114.28451
  20
215.82764
  30
0.0
  70
0
  0
VERTEX
  8
a
  10
112.63377
  20
214.93717
  30
0.0
  70
0
  0
VERTEX
  8
a
  10
110.79515
  20
214.56657
  30
0.0
  70
0
  0
VERTEX
  8
a
  10
108.92835
  20
214.74803
  30
0.0
  70
0
  0
VERTEX
  8
a
  10
107.19552
  20
215.46579
  30
0.0
  70
0
  0
VERTEX
  8
a
  10
105.74718
  20
216.65751
  30
0.0
  70
0
  0
VERTEX
  8
a
  10
104.70913
  20
218.21967
  30
0.0
  70
0
  0
VERTEX
  8
a
  10
104.17154
  20
220.01657
  30
0.0
  70
0
  0
VERTEX
  8
a
  10
104.0928
  20
220.48504
  30
0.0
  70
0
  0
VERTEX
  8
a
  10
103.83703
  20
221.39607
  30
0.0
  70
0
  0
VERTEX
  8
a
  10
103.35419
  20
222.20987
  30
0.0
  70
0
  0
VERTEX
  8
a
  10
102.67717
  20
222.87096
  30
0.0
  70
0
  0
VERTEX
  8
a
  10
101.85212
  20
223.3343
  30
0.0
  70
0
  0
VERTEX
  8
a
  10
100.93526
  20
223.56832
  30
0.0
  70
0
  0
VERTEX
  8
a
  10
99.98907
  20
223.55706
  30
0.0
  70
0
  0
VERTEX
  8
a
  10
99.07804
  20
223.30129
  30
0.0
  70
0
  0
VERTEX
  8
a
  10
98.26425
  20
222.81844
  30
0.0
  70
0
  0
VERTEX
  8
a
  10
97.60315
  20
222.14143
  30
0.0
  70
0
  0
VERTEX
  8
a
  10
97.13981
  20
221.31637
  30
0.0
  70
0
  0
VERTEX
  8
a
  10
96.90579
  20
220.39951
  30
0.0
  70
0
  0
VERTEX
  8
a
  10
96.91705
  20
219.45332
  30
0.0
  70
0
  0
VERTEX
  8
a
  10
96.97349
  20
218.98165
  30
0.0
  70
0
  0
VERTEX
  8
a
  10
96.96392
  20
217.10607
  30
0.0
  70
0
  0
VERTEX
  8
a
  10
96.40803
  20
215.31474
  30
0.0
  70
0
  0
VERTEX
  8
a
  10
95.3541
  20
213.76325
  30
0.0
  70
0
  0
VERTEX
  8
a
  10
93.89368
  20
212.58637
  30
0.0
  70
0
  0
VERTEX
  8
a
  10
92.15362
  20
211.88632
  30
0.0
  70
0
  0
VERTEX
  8
a
  10
90.28507
  20
211.72391
  30
0.0
  70
0
  0
VERTEX
  8
a
  10
88.45032
  20
212.11325
  30
0.0
  70
0
  0
VERTEX
  8
a
  10
60.25173
  20
199.23538
  30
0.0
  70
0
  0
VERTEX
  8
a
  10
59.34447
  20
197.59382
  30
0.0
  70
0
  0
VERTEX
  8
a
  10
57.99808
  20
196.28801
  30
0.0
  70
0
  0
VERTEX
  8
a
  10
56.32953
  20
195.4314
  30
0.0
  70
0
  0
VERTEX
  8
a
  10
54.48373
  20
195.09838
  30
0.0
  70
0
  0
VERTEX
  8
a
  10
52.62102
  20
195.31788
  30
0.0
  70
0
  0
VERTEX
  8
a
  10
50.90319
  20
196.07084
  30
0.0
  70
0
  0
VERTEX
  8
a
  10
49.47946
  20
197.29185
  30
0.0
  70
0
  0
VERTEX
  8
a
  10
49.15994
  20
197.64338
  30
0.0
  70
0
  0
VERTEX
  8
a
  10
48.45224
  20
198.27151
  30
0.0
  70
0
  0
VERTEX
  8
a
  10
47.60607
  20
198.69507
  30
0.0
  70
0
  0
VERTEX
  8
a
  10
46.67911
  20
198.8852
  30
0.0
  70
0
  0
VERTEX
  8
a
  10
45.73453
  20
198.82893
  30
0.0
  70
0
  0
VERTEX
  8
a
  10
44.8367
  20
198.5301
  30
0.0
  70
0
  0
VERTEX
  8
a
  10
44.04681
  20
198.00908
  30
0.0
  70
0
  0
VERTEX
  8
a
  10
43.41868
  20
197.30137
  30
0.0
  70
0
  0
VERTEX
  8
a
  10
42.99512
  20
196.45521
  30
0.0
  70
0
  0
VERTEX
  8
a
  10
42.80499
  20
195.52825
  30
0.0
  70
0
  0
VERTEX
  8
a
  10
42.86126
  20
194.58367
  30
0.0
  70
0
  0
VERTEX
  8
a
  10
43.16009
  20
193.68584
  30
0.0
  70
0
  0
VERTEX
  8
a
  10
43.68111
  20
192.89595
  30
0.0
  70
0
  0
VERTEX
  8
a
  10
43.98359
  20
192.52965
  30
0.0
  70
0
  0
VERTEX
  8
a
  10
44.98956
  20
190.94665
  30
0.0
  70
0
  0
VERTEX
  8
a
  10
45.49038
  20
189.13915
  30
0.0
  70
0
  0
VERTEX
  8
a
  10
45.44256
  20
187.26416
  30
0.0
  70
0
  0
VERTEX
  8
a
  10
44.85024
  20
185.48454
  30
0.0
  70
0
  0
VERTEX
  8
a
  10
43.76489
  20
183.95488
  30
0.0
  70
0
  0
VERTEX
  8
a
  10
42.28076
  20
182.80803
  30
0.0
  70
0
  0
VERTEX
  8
a
  10
40.52679
  20
182.14362
  30
0.0
  70
0
  0
VERTEX
  8
a
  10
23.76692
  20
156.06476
  30
0.0
  70
0
  0
VERTEX
  8
a
  10
23.89118
  20
154.19328
  30
0.0
  70
0
  0
VERTEX
  8
a
  10
23.4645
  20
152.36686
  30
0.0
  70
0
  0
VERTEX
  8
a
  10
22.52394
  20
150.74414
  30
0.0
  70
0
  0
VERTEX
  8
a
  10
21.1512
  20
149.46607
  30
0.0
  70
0
  0
VERTEX
  8
a
  10
19.46552
  20
148.64367
  30
0.0
  70
0
  0
VERTEX
  8
a
  10
17.61331
  20
148.34837
  30
0.0
  70
0
  0
VERTEX
  8
a
  10
15.75546
  20
148.60583
  30
0.0
  70
0
  0
VERTEX
  8
a
  10
15.29662
  20
148.72881
  30
0.0
  70
0
  0
VERTEX
  8
a
  10
14.36166
  20
148.87461
  30
0.0
  70
0
  0
VERTEX
  8
a
  10
13.42083
  20
148.77346
  30
0.0
  70
0
  0
VERTEX
  8
a
  10
12.53823
  20
148.43225
  30
0.0
  70
0
  0
VERTEX
  8
a
  10
11.77402
  20
147.87424
  30
0.0
  70
0
  0
VERTEX
  8
a
  10
11.18028
  20
147.13745
  30
0.0
  70
0
  0
VERTEX
  8
a
  10
10.79746
  20
146.27209
  30
0.0
  70
0
  0
VERTEX
  8
a
  10
10.65166
  20
145.33713
  30
0.0
  70
0
  0
VERTEX
  8
a
  10
10.75281
  20
144.3963
  30
0.0
  70
0
  0
VERTEX
  8
a
  10
11.09402
  20
143.51371
  30
0.0
  70
0
  0
VERTEX
  8
a
  10
11.65203
  20
142.7495
  30
0.0
  70
0
  0
VERTEX
  8
a
  10
12.38882
  20
142.15575
  30
0.0
  70
0
  0
VERTEX
  8
a
  10
13.25418
  20
141.77293
  30
0.0
  70
0
  0
VERTEX
  8
a
  10
13.70668
  20
141.62832
  30
0.0
  70
0
  0
VERTEX
  8
a
  10
15.40879
  20
140.84048
  30
0.0
  70
0
  0
VERTEX
  8
a
  10
16.80732
  20
139.59068
  30
0.0
  70
0
  0
VERTEX
  8
a
  10
17.78078
  20
137.98748
  30
0.0
  70
0
  0
VERTEX
  8
a
  10
18.24463
  20
136.17014
  30
0.0
  70
0
  0
VERTEX
  8
a
  10
18.15857
  20
134.29652
  30
0.0
  70
0
  0
VERTEX
  8
a
  10
17.53008
  20
132.52935
  30
0.0
  70
0
  0
VERTEX
  8
a
  10
16.41375
  20
131.02215
  30
0.0
  70
0
  0
VERTEX
  8
a
  10
16.41375
  20
100.02215
  30
0.0
  70
0
  0
VERTEX
  8
a
  10
17.53008
  20
98.51494
  30
0.0
  70
0
  0
VERTEX
  8
a
  10
18.15857
  20
96.74777
  30
0.0
  70
0
  0
VERTEX
  8
a
  10
18.24463
  20
94.87415
  30
0.0
  70
0
  0
VERTEX
  8
a
  10
17.78078
  20
93.05681
  30
0.0
  70
0
  0
VERTEX
  8
a
  10
16.80732
  20
91.45361
  30
0.0
  70
0
  0
VERTEX
  8
a
  10
15.40879
  20
90.20381
  30
0.0
  70
0
  0
VERTEX
  8
a
  10
13.70668
  20
89.41597
  30
0.0
  70
0
  0
VERTEX
  8
a
  10
13.25418
  20
89.27136
  30
0.0
  70
0
  0
VERTEX
  8
a
  10
12.38882
  20
88.88854
  30
0.0
  70
0
  0
VERTEX
  8
a
  10
11.65203
  20
88.2948
  30
0.0
  70
0
  0
VERTEX
  8
a
  10
11.09402
  20
87.53059
  30
0.0
  70
0
  0
VERTEX
  8
a
  10
10.75281
  20
86.64799
  30
0.0
  70
0
  0
VERTEX
  8
a
  10
10.65166
  20
85.70716
  30
0.0
  70
0
  0
VERTEX
  8
a
  10
10.79746
  20
84.7722
  30
0.0
  70
0
  0
VERTEX
  8
a
  10
11.18028
  20
83.90684
  30
0.0
  70
0
  0
VERTEX
  8
a
  10
11.77402
  20
83.17005
  30
0.0
  70
0
  0
VERTEX
  8
a
  10
12.53823
  20
82.61204
  30
0.0
  70
0
  0
VERTEX
  8
a
  10
13.42083
  20
82.27083
  30
0.0
  70
0
  0
VERTEX
  8
a
  10
14.36166
  20
82.16968
  30
0.0
  70
0
  0
VERTEX
  8
a
  10
15.29662
  20
82.31548
  30
0.0
  70
0
  0
VERTEX
  8
a
  10
15.75546
  20
82.43846
  30
0.0
  70
0
  0
VERTEX
  8
a
  10
17.61331
  20
82.69592
  30
0.0
  70
0
  0
VERTEX
  8
a
  10
19.46552
  20
82.40062
  30
0.0
  70
0
  0
VERTEX
  8
a
  10
21.1512
  20
81.57822
  30
0.0
  70
0
  0
VERTEX
  8
a
  10
22.52394
  20
80.30015
  30
0.0
  70
0
  0
VERTEX
  8
a
  10
23.4645
  20
78.67743
  30
0.0
  70
0
  0
VERTEX
  8
a
  10
23.89118
  20
76.85101
  30
0.0
  70
0
  0
VERTEX
  8
a
  10
23.76692
  20
74.97953
  30
0.0
  70
0
  0
VERTEX
  8
a
  10
40.52679
  20
48.90067
  30
0.0
  70
0
  0
VERTEX
  8
a
  10
42.28076
  20
48.23626
  30
0.0
  70
0
  0
VERTEX
  8
a
  10
43.76489
  20
47.08941
  30
0.0
  70
0
  0
VERTEX
  8
a
  10
44.85024
  20
45.55975
  30
0.0
  70
0
  0
VERTEX
  8
a
  10
45.44256
  20
43.78013
  30
0.0
  70
0
  0
VERTEX
  8
a
  10
45.49038
  20
41.90514
  30
0.0
  70
0
  0
VERTEX
  8
a
  10
44.98956
  20
40.09764
  30
0.0
  70
0
  0
VERTEX
  8
a
  10
43.98359
  20
38.51464
  30
0.0
  70
0
  0
VERTEX
  8
a
  10
43.68111
  20
38.14834
  30
0.0
  70
0
  0
VERTEX
  8
a
  10
43.12332
  20
37.28041
  30
0.0
  70
0
  0
VERTEX
  8
a
  10
42.83265
  20
36.29048
  30
0.0
  70
0
  0
VERTEX
  8
a
  10
42.83265
  20
35.25877
  30
0.0
  70
0
  0
VERTEX
  8
a
  10
43.12332
  20
34.26884
  30
0.0
  70
0
  0
VERTEX
  8
a
  10
43.68111
  20
33.40091
  30
0.0
  70
0
  0
VERTEX
  8
a
  10
44.46083
  20
32.72528
  30
0.0
  70
0
  0
VERTEX
  8
a
  10
45.39931
  20
32.29669
  30
0.0
  70
0
  0
VERTEX
  8
a
  10
46.42053
  20
32.14986
  30
0.0
  70
0
  0
VERTEX
  8
a
  10
47.44174
  20
32.29669
  30
0.0
  70
0
  0
VERTEX
  8
a
  10
48.38022
  20
32.72528
  30
0.0
  70
0
  0
VERTEX
  8
a
  10
49.15994
  20
33.40091
  30
0.0
  70
0
  0
VERTEX
  8
a
  10
49.47946
  20
33.75244
  30
0.0
  70
0
  0
VERTEX
  8
a
  10
50.90319
  20
34.97345
  30
0.0
  70
0
  0
VERTEX
  8
a
  10
52.62102
  20
35.72641
  30
0.0
  70
0
  0
VERTEX
  8
a
  10
54.48373
  20
35.94591
  30
0.0
  70
0
  0
VERTEX
  8
a
  10
56.32953
  20
35.61289
  30
0.0
  70
0
  0
VERTEX
  8
a
  10
57.99808
  20
34.75628
  30
0.0
  70
0
  0
VERTEX
  8
a
  10
59.34447
  20
33.45048
  30
0.0
  70
0
  0
VERTEX
  8
a
  10
60.25173
  20
31.80891
  30
0.0
  70
0
  0
VERTEX
  8
a
  10
88.45032
  20
18.93104
  30
0.0
  70
0
  0
VERTEX
  8
a
  10
90.28507
  20
19.32038
  30
0.0
  70
0
  0
VERTEX
  8
a
  10
92.15362
  20
19.15797
  30
0.0
  70
0
  0
VERTEX
  8
a
  10
93.89368
  20
18.45792
  30
0.0
  70
0
  0
VERTEX
  8
a
  10
95.3541
  20
17.28104
  30
0.0
  70
0
  0
VERTEX
  8
a
  10
96.40803
  20
15.72955
  30
0.0
  70
0
  0
VERTEX
  8
a
  10
96.96392
  20
13.93822
  30
0.0
  70
0
  0
VERTEX
  8
a
  10
96.97349
  20
12.06264
  30
0.0
  70
0
  0
VERTEX
  8
a
  10
96.91705
  20
11.59097
  30
0.0
  70
0
  0
VERTEX
  8
a
  10
96.90579
  20
10.64478
  30
0.0
  70
0
  0
VERTEX
  8
a
  10
97.13981
  20
9.72792
  30
0.0
  70
0
  0
VERTEX
  8
a
  10
97.60315
  20
8.90286
  30
0.0
  70
0
  0
VERTEX
  8
a
  10
98.26425
  20
8.22585
  30
0.0
  70
0
  0
VERTEX
  8
a
  10
99.07804
  20
7.743
  30
0.0
  70
0
  0
VERTEX
  8
a
  10
99.98907
  20
7.48723
  30
0.0
  70
0
  0
VERTEX
  8
a
  10
100.93526
  20
7.47597
  30
0.0
  70
0
  0
VERTEX
  8
a
  10
101.85212
  20
7.70999
  30
0.0
  70
0
  0
VERTEX
  8
a
  10
102.67717
  20
8.17333
  30
0.0
  70
0
  0
VERTEX
  8
a
  10
103.35419
  20
8.83442
  30
0.0
  70
0
  0
VERTEX
  8
a
  10
103.83703
  20
9.64822
  30
0.0
  70
0
  0
VERTEX
  8
a
  10
104.0928
  20
10.55925
  30
0.0
  70
0
  0
VERTEX
  8
a
  10
104.17154
  20
11.02772
  30
0.0
  70
0
  0
VERTEX
  8
a
  10
104.70913
  20
12.82463
  30
0.0
  70
0
  0
VERTEX
  8
a
  10
105.74718
  20
14.38678
  30
0.0
  70
0
  0
VERTEX
  8
a
  10
107.19552
  20
15.5785
  30
0.0
  70
0
  0
VERTEX
  8
a
  10
108.92835
  20
16.29626
  30
0.0
  70
0
  0
VERTEX
  8
a
  10
110.79515
  20
16.47772
  30
0.0
  70
0
  0
VERTEX
  8
a
  10
112.63377
  20
16.10712
  30
0.0
  70
0
  0
VERTEX
  8
a
  10
114.28451
  20
15.21665
  30
0.0
  70
0
  0
VERTEX
  8
a
  10
144.96897
  20
19.62841
  30
0.0
  70
0
  0
VERTEX
  8
a
  10
146.30197
  20
20.94787
  30
0.0
  70
0
  0
VERTEX
  8
a
  10
147.9617
  20
21.82146
  30
0.0
  70
0
  0
VERTEX
  8
a
  10
149.80401
  20
22.17329
  30
0.0
  70
0
  0
VERTEX
  8
a
  10
151.66886
  20
21.9728
  30
0.0
  70
0
  0
VERTEX
  8
a
  10
153.39428
  20
21.2374
  30
0.0
  70
0
  0
VERTEX
  8
a
  10
154.83039
  20
20.03097
  30
0.0
  70
0
  0
VERTEX
  8
a
  10
155.85245
  20
18.45831
  30
0.0
  70
0
  0
VERTEX
  8
a
  10
156.05999
  20
18.031
  30
0.0
  70
0
  0
VERTEX
  8
a
  10
156.56206
  20
17.22893
  30
0.0
  70
0
  0
VERTEX
  8
a
  10
157.25462
  20
16.58414
  30
0.0
  70
0
  0
VERTEX
  8
a
  10
158.09046
  20
16.14056
  30
0.0
  70
0
  0
VERTEX
  8
a
  10
159.01263
  20
15.92843
  30
0.0
  70
0
  0
VERTEX
  8
a
  10
159.95829
  20
15.9622
  30
0.0
  70
0
  0
VERTEX
  8
a
  10
160.86297
  20
16.23958
  30
0.0
  70
0
  0
VERTEX
  8
a
  10
161.66504
  20
16.74165
  30
0.0
  70
0
  0
VERTEX
  8
a
  10
162.30984
  20
17.43421
  30
0.0
  70
0
  0
VERTEX
  8
a
  10
162.75342
  20
18.27006
  30
0.0
  70
0
  0
VERTEX
  8
a
  10
162.96555
  20
19.19223
  30
0.0
  70
0
  0
VERTEX
  8
a
  10
162.93177
  20
20.13788
  30
0.0
  70
0
  0
VERTEX
  8
a
  10
162.6544
  20
21.04257
  30
0.0
  70
0
  0
VERTEX
  8
a
  10
162.46736
  20
21.47924
  30
0.0
  70
0
  0
VERTEX
  8
a
  10
161.94813
  20
23.28154
  30
0.0
  70
0
  0
VERTEX
  8
a
  10
161.97683
  20
25.15692
  30
0.0
  70
0
  0
VERTEX
  8
a
  10
162.55096
  20
26.94248
  30
0.0
  70
0
  0
VERTEX
  8
a
  10
163.62066
  20
28.48314
  30
0.0
  70
0
  0
VERTEX
  8
a
  10
165.093
  20
29.64506
  30
0.0
  70
0
  0
VERTEX
  8
a
  10
166.84011
  20
30.32733
  30
0.0
  70
0
  0
VERTEX
  8
a
  10
168.71023
  20
30.47067
  30
0.0
  70
0
  0
VERTEX
  8
a
  10
192.13846
  20
50.77136
  30
0.0
  70
0
  0
VERTEX
  8
a
  10
192.54649
  20
52.60203
  30
0.0
  70
0
  0
VERTEX
  8
a
  10
193.47045
  20
54.23426
  30
0.0
  70
0
  0
VERTEX
  8
a
  10
194.83009
  20
55.52627
  30
0.0
  70
0
  0
VERTEX
  8
a
  10
196.50729
  20
56.36582
  30
0.0
  70
0
  0
VERTEX
  8
a
  10
198.35639
  20
56.67999
  30
0.0
  70
0
  0
VERTEX
  8
a
  10
200.21677
  20
56.4415
  30
0.0
  70
0
  0
VERTEX
  8
a
  10
201.92683
  20
55.67106
  30
0.0
  70
0
  0
VERTEX
  8
a
  10
202.33244
  20
55.42379
  30
0.0
  70
0
  0
VERTEX
  8
a
  10
203.18844
  20
55.02048
  30
0.0
  70
0
  0
VERTEX
  8
a
  10
204.11966
  20
54.85247
  30
0.0
  70
0
  0
VERTEX
  8
a
  10
205.06264
  20
54.93121
  30
0.0
  70
0
  0
VERTEX
  8
a
  10
205.9531
  20
55.25131
  30
0.0
  70
0
  0
VERTEX
  8
a
  10
206.73037
  20
55.79098
  30
0.0
  70
0
  0
VERTEX
  8
a
  10
207.34148
  20
56.51344
  30
0.0
  70
0
  0
VERTEX
  8
a
  10
207.74479
  20
57.36944
  30
0.0
  70
0
  0
VERTEX
  8
a
  10
207.9128
  20
58.30066
  30
0.0
  70
0
  0
VERTEX
  8
a
  10
207.83407
  20
59.24364
  30
0.0
  70
0
  0
VERTEX
  8
a
  10
207.51396
  20
60.1341
  30
0.0
  70
0
  0
VERTEX
  8
a
  10
206.97429
  20
60.91137
  30
0.0
  70
0
  0
VERTEX
  8
a
  10
206.25183
  20
61.52249
  30
0.0
  70
0
  0
VERTEX
  8
a
  10
205.85841
  20
61.78872
  30
0.0
  70
0
  0
VERTEX
  8
a
  10
204.44721
  20
63.02419
  30
0.0
  70
0
  0
VERTEX
  8
a
  10
203.45744
  20
64.61738
  30
0.0
  70
0
  0
VERTEX
  8
a
  10
202.97508
  20
66.42989
  30
0.0
  70
0
  0
VERTEX
  8
a
  10
203.04202
  20
68.30429
  30
0.0
  70
0
  0
VERTEX
  8
a
  10
203.65246
  20
70.07778
  30
0.0
  70
0
  0
VERTEX
  8
a
  10
204.75336
  20
71.59629
  30
0.0
  70
0
  0
VERTEX
  8
a
  10
206.2491
  20
72.72794
  30
0.0
  70
0
  0
SEQEND
  0
TEXT
  8
labels
  10
0.0
  20
0.0
  30
0.0
  40
0.1
  1
Chain link:  Hole spacing:20  Width:28 Overall length:8 Corner chamfer :0
  41
1.0
  7
ARIAL
  0
TEXT
  8
labels
  10
0.0
  20
-0.2
  30
0.0
  40
0.1
  1
Chain block: Hole spacing:40  Width:49 Overall length:9 Corner chamfer :0
  41
1.0
  7
ARIAL
  0
ENDSEC
  0
EOF
