  999
DXF file created by gear template generator. 2025-06-12T17:13:44
  999
Chain link:  Hole spacing:20  Width:28 Overall length:8 Corner chamfer :0
  999
Chain block: Hole spacing:40  Width:49 Overall length:9 Corner chamfer :0
  0
SECTION
  2
HEADER
  9
$MEASUREMENT
  70
1
  0
ENDSEC
  0
SECTION
  2
TABLES
  0
TABLE
  2
LTYPE
  70
1
  0
LTYPE
  2
Continuous
  3
_
  70
0
  72
65
  73
0
  40
0.0
  0
ENDTAB
  0
TABLE
  2
LAYER
  70
4
  0
LAYER
  2
profile
  70
0
  62
7
  6
Continuous
  0
LAYER
  2
construction
  70
0
  62
5
  6
Continuous
  0
LAYER
  2
grid
  70
0
  62
3
  6
Continuous
  0
LAYER
  2
labels
  70
0
  62
1
  6
Continuous
  0
ENDTAB
  0
TABLE
  2
STYLE
  70
1
  0
STYLE
  2
ARIAL
  3
Arial.ttf
  70
0
  40
0.0
  41
1.0
  50
0.0
  71
0
  42
1.0
  0
ENDTAB
  0
ENDSEC
  0
SECTION
  2
ENTITIES
  0
CIRCLE
  8
c
  10
75.70941
  20
75.70941
  30
0.0
  40
67.6042
 0
LINE
 8
c
 10
138.11943
 20
85.04377
 30
0
 11
147.02042
 21
86.37505
 31
 0
 0
LINE
 8
c
 10
138.11943
 20
66.37505
 30
0
 11
147.02042
 21
65.04377
 31
 0
 0
LINE
 8
c
 10
107.32352
 20
130.3234
 30
0
 11
111.83237
 21
138.11252
 31
 0
 0
LINE
 8
c
 10
121.91932
 20
118.68365
 30
0
 11
128.50983
 21
124.81269
 31
 0
 0
LINE
 8
c
 10
52.72155
 20
134.47759
 30
0
 11
49.44299
 21
142.85918
 31
 0
 0
LINE
 8
c
 10
70.92221
 20
138.63177
 30
0
 11
70.23945
 21
147.60583
 31
 0
 0
LINE
 8
c
 10
15.4299
 20
94.37813
 30
0
 11
6.83276
 21
97.04069
 31
 0
 0
LINE
 8
c
 10
23.52996
 20
111.19807
 30
0
 11
16.08806
 21
116.25951
 31
 0
 0
LINE
 8
c
 10
23.52996
 20
40.22075
 30
0
 11
16.08806
 21
35.15932
 31
 0
 0
LINE
 8
c
 10
15.4299
 20
57.04069
 30
0
 11
6.83276
 21
54.37813
 31
 0
 0
LINE
 8
c
 10
70.92221
 20
12.78706
 30
0
 11
70.23945
 21
3.81299
 31
 0
 0
LINE
 8
c
 10
52.72155
 20
16.94124
 30
0
 11
49.44299
 21
8.55965
 31
 0
 0
LINE
 8
c
 10
121.91932
 20
32.73518
 30
0
 11
128.50983
 21
26.60614
 31
 0
 0
LINE
 8
c
 10
107.32352
 20
21.09542
 30
0
 11
111.83237
 21
13.3063
 31
 0
 0
LINE
 8
a
 10
41.90731
 20
75.70941
 30
0
 11
109.51151
 21
75.70941
 31
 0
 0
LINE
 8
a
 10
75.70941
 20
41.90731
 30
0
 11
75.70941
 21
109.51151
 31
 0
  0
POLYLINE
  8
a
  66
1
  10
0.0
  20
0.0
  70
1
  0
VERTEX
  8
a
  10
136.56309
  20
63.60753
  30
0.0
  70
0
  0
VERTEX
  8
a
  10
136.21904
  20
65.30167
  30
0.0
  70
0
  0
VERTEX
  8
a
  10
136.34362
  20
67.0259
  30
0.0
  70
0
  0
VERTEX
  8
a
  10
136.92764
  20
68.65299
  30
0.0
  70
0
  0
VERTEX
  8
a
  10
137.928
  20
70.06287
  30
0.0
  70
0
  0
VERTEX
  8
a
  10
139.27089
  20
71.15151
  30
0.0
  70
0
  0
VERTEX
  8
a
  10
140.85722
  20
71.83857
  30
0.0
  70
0
  0
VERTEX
  8
a
  10
142.56992
  20
72.07337
  30
0.0
  70
0
  0
VERTEX
  8
a
  10
143.31361
  20
72.10099
  30
0.0
  70
0
  0
VERTEX
  8
a
  10
144.24754
  20
72.22394
  30
0.0
  70
0
  0
VERTEX
  8
a
  10
145.11782
  20
72.58442
  30
0.0
  70
0
  0
VERTEX
  8
a
  10
145.86515
  20
73.15787
  30
0.0
  70
0
  0
VERTEX
  8
a
  10
146.4386
  20
73.9052
  30
0.0
  70
0
  0
VERTEX
  8
a
  10
146.79908
  20
74.77548
  30
0.0
  70
0
  0
VERTEX
  8
a
  10
146.92204
  20
75.70941
  30
0.0
  70
0
  0
VERTEX
  8
a
  10
146.79908
  20
76.64334
  30
0.0
  70
0
  0
VERTEX
  8
a
  10
146.4386
  20
77.51362
  30
0.0
  70
0
  0
VERTEX
  8
a
  10
145.86515
  20
78.26095
  30
0.0
  70
0
  0
VERTEX
  8
a
  10
145.11782
  20
78.8344
  30
0.0
  70
0
  0
VERTEX
  8
a
  10
144.24754
  20
79.19488
  30
0.0
  70
0
  0
VERTEX
  8
a
  10
143.31361
  20
79.31783
  30
0.0
  70
0
  0
VERTEX
  8
a
  10
142.56992
  20
79.34545
  30
0.0
  70
0
  0
VERTEX
  8
a
  10
140.85722
  20
79.58025
  30
0.0
  70
0
  0
VERTEX
  8
a
  10
139.27089
  20
80.26732
  30
0.0
  70
0
  0
VERTEX
  8
a
  10
137.928
  20
81.35596
  30
0.0
  70
0
  0
VERTEX
  8
a
  10
136.92764
  20
82.76584
  30
0.0
  70
0
  0
VERTEX
  8
a
  10
136.34362
  20
84.39292
  30
0.0
  70
0
  0
VERTEX
  8
a
  10
136.21904
  20
86.11715
  30
0.0
  70
0
  0
VERTEX
  8
a
  10
136.56309
  20
87.81129
  30
0.0
  70
0
  0
VERTEX
  8
a
  10
123.11269
  20
115.74133
  30
0.0
  70
0
  0
VERTEX
  8
a
  10
121.57364
  20
116.52862
  30
0.0
  70
0
  0
VERTEX
  8
a
  10
120.30326
  20
117.70106
  30
0.0
  70
0
  0
VERTEX
  8
a
  10
119.39529
  20
119.17214
  30
0.0
  70
0
  0
VERTEX
  8
a
  10
118.91671
  20
120.8333
  30
0.0
  70
0
  0
VERTEX
  8
a
  10
118.90286
  20
122.56197
  30
0.0
  70
0
  0
VERTEX
  8
a
  10
119.35475
  20
124.23059
  30
0.0
  70
0
  0
VERTEX
  8
a
  10
120.23903
  20
125.71603
  30
0.0
  70
0
  0
VERTEX
  8
a
  10
120.68112
  20
126.31469
  30
0.0
  70
0
  0
VERTEX
  8
a
  10
121.16729
  20
127.12152
  30
0.0
  70
0
  0
VERTEX
  8
a
  10
121.42806
  20
128.0267
  30
0.0
  70
0
  0
VERTEX
  8
a
  10
121.44568
  20
128.96852
  30
0.0
  70
0
  0
VERTEX
  8
a
  10
121.21893
  20
129.88281
  30
0.0
  70
0
  0
VERTEX
  8
a
  10
120.76327
  20
130.70726
  30
0.0
  70
0
  0
VERTEX
  8
a
  10
120.10976
  20
131.38568
  30
0.0
  70
0
  0
VERTEX
  8
a
  10
119.30292
  20
131.87185
  30
0.0
  70
0
  0
VERTEX
  8
a
  10
118.39775
  20
132.13262
  30
0.0
  70
0
  0
VERTEX
  8
a
  10
117.45593
  20
132.15024
  30
0.0
  70
0
  0
VERTEX
  8
a
  10
116.54164
  20
131.92349
  30
0.0
  70
0
  0
VERTEX
  8
a
  10
115.71719
  20
131.46783
  30
0.0
  70
0
  0
VERTEX
  8
a
  10
115.03876
  20
130.81432
  30
0.0
  70
0
  0
VERTEX
  8
a
  10
114.55349
  20
130.2501
  30
0.0
  70
0
  0
VERTEX
  8
a
  10
113.30206
  20
129.05744
  30
0.0
  70
0
  0
VERTEX
  8
a
  10
111.77583
  20
128.24559
  30
0.0
  70
0
  0
VERTEX
  8
a
  10
110.08742
  20
127.87443
  30
0.0
  70
0
  0
VERTEX
  8
a
  10
108.36142
  20
127.97136
  30
0.0
  70
0
  0
VERTEX
  8
a
  10
106.72518
  20
128.52922
  30
0.0
  70
0
  0
VERTEX
  8
a
  10
105.29945
  20
129.50686
  30
0.0
  70
0
  0
VERTEX
  8
a
  10
104.18942
  20
130.83213
  30
0.0
  70
0
  0
VERTEX
  8
a
  10
73.96666
  20
137.73028
  30
0.0
  70
0
  0
VERTEX
  8
a
  10
72.39155
  20
137.01787
  30
0.0
  70
0
  0
VERTEX
  8
a
  10
70.68283
  20
136.75566
  30
0.0
  70
0
  0
VERTEX
  8
a
  10
68.96658
  20
136.96297
  30
0.0
  70
0
  0
VERTEX
  8
a
  10
67.36945
  20
137.62453
  30
0.0
  70
0
  0
VERTEX
  8
a
  10
66.00928
  20
138.6915
  30
0.0
  70
0
  0
VERTEX
  8
a
  10
64.98645
  20
140.08517
  30
0.0
  70
0
  0
VERTEX
  8
a
  10
64.37642
  20
141.70268
  30
0.0
  70
0
  0
VERTEX
  8
a
  10
64.18401
  20
142.42158
  30
0.0
  70
0
  0
VERTEX
  8
a
  10
63.85632
  20
143.30474
  30
0.0
  70
0
  0
VERTEX
  8
a
  10
63.31122
  20
144.07298
  30
0.0
  70
0
  0
VERTEX
  8
a
  10
62.58586
  20
144.67397
  30
0.0
  70
0
  0
VERTEX
  8
a
  10
61.72966
  20
145.06674
  30
0.0
  70
0
  0
VERTEX
  8
a
  10
60.80098
  20
145.22453
  30
0.0
  70
0
  0
VERTEX
  8
a
  10
59.86311
  20
145.13659
  30
0.0
  70
0
  0
VERTEX
  8
a
  10
58.97996
  20
144.8089
  30
0.0
  70
0
  0
VERTEX
  8
a
  10
58.21171
  20
144.26379
  30
0.0
  70
0
  0
VERTEX
  8
a
  10
57.61072
  20
143.53843
  30
0.0
  70
0
  0
VERTEX
  8
a
  10
57.21795
  20
142.68223
  30
0.0
  70
0
  0
VERTEX
  8
a
  10
57.06016
  20
141.75356
  30
0.0
  70
0
  0
VERTEX
  8
a
  10
57.14811
  20
140.81568
  30
0.0
  70
0
  0
VERTEX
  8
a
  10
57.28667
  20
140.08449
  30
0.0
  70
0
  0
VERTEX
  8
a
  10
57.43887
  20
138.36248
  30
0.0
  70
0
  0
VERTEX
  8
a
  10
57.12202
  20
136.66304
  30
0.0
  70
0
  0
VERTEX
  8
a
  10
56.3595
  20
135.11158
  30
0.0
  70
0
  0
VERTEX
  8
a
  10
55.20757
  20
133.82257
  30
0.0
  70
0
  0
VERTEX
  8
a
  10
53.75123
  20
132.89113
  30
0.0
  70
0
  0
VERTEX
  8
a
  10
52.09796
  20
132.38599
  30
0.0
  70
0
  0
VERTEX
  8
a
  10
50.36973
  20
132.34443
  30
0.0
  70
0
  0
VERTEX
  8
a
  10
26.13295
  20
113.01625
  30
0.0
  70
0
  0
VERTEX
  8
a
  10
25.70787
  20
111.3406
  30
0.0
  70
0
  0
VERTEX
  8
a
  10
24.84751
  20
109.84118
  30
0.0
  70
0
  0
VERTEX
  8
a
  10
23.61536
  20
108.62862
  30
0.0
  70
0
  0
VERTEX
  8
a
  10
22.10234
  20
107.79241
  30
0.0
  70
0
  0
VERTEX
  8
a
  10
20.4201
  20
107.39423
  30
0.0
  70
0
  0
VERTEX
  8
a
  10
18.69276
  20
107.46349
  30
0.0
  70
0
  0
VERTEX
  8
a
  10
17.04779
  20
107.99506
  30
0.0
  70
0
  0
VERTEX
  8
a
  10
16.36577
  20
108.29285
  30
0.0
  70
0
  0
VERTEX
  8
a
  10
15.47098
  20
108.58729
  30
0.0
  70
0
  0
VERTEX
  8
a
  10
14.53047
  20
108.64011
  30
0.0
  70
0
  0
VERTEX
  8
a
  10
13.60834
  20
108.44771
  30
0.0
  70
0
  0
VERTEX
  8
a
  10
12.76743
  20
108.02319
  30
0.0
  70
0
  0
VERTEX
  8
a
  10
12.06505
  20
107.3955
  30
0.0
  70
0
  0
VERTEX
  8
a
  10
11.54905
  20
106.60741
  30
0.0
  70
0
  0
VERTEX
  8
a
  10
11.25461
  20
105.71262
  30
0.0
  70
0
  0
VERTEX
  8
a
  10
11.2018
  20
104.77212
  30
0.0
  70
0
  0
VERTEX
  8
a
  10
11.3942
  20
103.84999
  30
0.0
  70
0
  0
VERTEX
  8
a
  10
11.81871
  20
103.00908
  30
0.0
  70
0
  0
VERTEX
  8
a
  10
12.4464
  20
102.30669
  30
0.0
  70
0
  0
VERTEX
  8
a
  10
13.23449
  20
101.7907
  30
0.0
  70
0
  0
VERTEX
  8
a
  10
13.89255
  20
101.44314
  30
0.0
  70
0
  0
VERTEX
  8
a
  10
15.33377
  20
100.48848
  30
0.0
  70
0
  0
VERTEX
  8
a
  10
16.46489
  20
99.18117
  30
0.0
  70
0
  0
VERTEX
  8
a
  10
17.20245
  20
97.61769
  30
0.0
  70
0
  0
VERTEX
  8
a
  10
17.49203
  20
95.91339
  30
0.0
  70
0
  0
VERTEX
  8
a
  10
17.31224
  20
94.19404
  30
0.0
  70
0
  0
VERTEX
  8
a
  10
16.67637
  20
92.5865
  30
0.0
  70
0
  0
VERTEX
  8
a
  10
15.63133
  20
91.20941
  30
0.0
  70
0
  0
VERTEX
  8
a
  10
15.63133
  20
60.20941
  30
0.0
  70
0
  0
VERTEX
  8
a
  10
16.67637
  20
58.83232
  30
0.0
  70
0
  0
VERTEX
  8
a
  10
17.31224
  20
57.22479
  30
0.0
  70
0
  0
VERTEX
  8
a
  10
17.49203
  20
55.50544
  30
0.0
  70
0
  0
VERTEX
  8
a
  10
17.20245
  20
53.80114
  30
0.0
  70
0
  0
VERTEX
  8
a
  10
16.46489
  20
52.23765
  30
0.0
  70
0
  0
VERTEX
  8
a
  10
15.33377
  20
50.93034
  30
0.0
  70
0
  0
VERTEX
  8
a
  10
13.89255
  20
49.97568
  30
0.0
  70
0
  0
VERTEX
  8
a
  10
13.23449
  20
49.62812
  30
0.0
  70
0
  0
VERTEX
  8
a
  10
12.4464
  20
49.11213
  30
0.0
  70
0
  0
VERTEX
  8
a
  10
11.81871
  20
48.40974
  30
0.0
  70
0
  0
VERTEX
  8
a
  10
11.3942
  20
47.56883
  30
0.0
  70
0
  0
VERTEX
  8
a
  10
11.2018
  20
46.64671
  30
0.0
  70
0
  0
VERTEX
  8
a
  10
11.25461
  20
45.7062
  30
0.0
  70
0
  0
VERTEX
  8
a
  10
11.54905
  20
44.81141
  30
0.0
  70
0
  0
VERTEX
  8
a
  10
12.06505
  20
44.02332
  30
0.0
  70
0
  0
VERTEX
  8
a
  10
12.76743
  20
43.39563
  30
0.0
  70
0
  0
VERTEX
  8
a
  10
13.60834
  20
42.97112
  30
0.0
  70
0
  0
VERTEX
  8
a
  10
14.53047
  20
42.77871
  30
0.0
  70
0
  0
VERTEX
  8
a
  10
15.47098
  20
42.83153
  30
0.0
  70
0
  0
VERTEX
  8
a
  10
16.36577
  20
43.12597
  30
0.0
  70
0
  0
VERTEX
  8
a
  10
17.04779
  20
43.42376
  30
0.0
  70
0
  0
VERTEX
  8
a
  10
18.69276
  20
43.95533
  30
0.0
  70
0
  0
VERTEX
  8
a
  10
20.4201
  20
44.02459
  30
0.0
  70
0
  0
VERTEX
  8
a
  10
22.10234
  20
43.62642
  30
0.0
  70
0
  0
VERTEX
  8
a
  10
23.61536
  20
42.7902
  30
0.0
  70
0
  0
VERTEX
  8
a
  10
24.84751
  20
41.57764
  30
0.0
  70
0
  0
VERTEX
  8
a
  10
25.70787
  20
40.07822
  30
0.0
  70
0
  0
VERTEX
  8
a
  10
26.13295
  20
38.40257
  30
0.0
  70
0
  0
VERTEX
  8
a
  10
50.36973
  20
19.07439
  30
0.0
  70
0
  0
VERTEX
  8
a
  10
52.09796
  20
19.03283
  30
0.0
  70
0
  0
VERTEX
  8
a
  10
53.75123
  20
18.52769
  30
0.0
  70
0
  0
VERTEX
  8
a
  10
55.20757
  20
17.59625
  30
0.0
  70
0
  0
VERTEX
  8
a
  10
56.3595
  20
16.30724
  30
0.0
  70
0
  0
VERTEX
  8
a
  10
57.12202
  20
14.75578
  30
0.0
  70
0
  0
VERTEX
  8
a
  10
57.43887
  20
13.05634
  30
0.0
  70
0
  0
VERTEX
  8
a
  10
57.28667
  20
11.33433
  30
0.0
  70
0
  0
VERTEX
  8
a
  10
57.14811
  20
10.60314
  30
0.0
  70
0
  0
VERTEX
  8
a
  10
57.06016
  20
9.66527
  30
0.0
  70
0
  0
VERTEX
  8
a
  10
57.21795
  20
8.73659
  30
0.0
  70
0
  0
VERTEX
  8
a
  10
57.61072
  20
7.88039
  30
0.0
  70
0
  0
VERTEX
  8
a
  10
58.21171
  20
7.15503
  30
0.0
  70
0
  0
VERTEX
  8
a
  10
58.97996
  20
6.60993
  30
0.0
  70
0
  0
VERTEX
  8
a
  10
59.86311
  20
6.28224
  30
0.0
  70
0
  0
VERTEX
  8
a
  10
60.80098
  20
6.19429
  30
0.0
  70
0
  0
VERTEX
  8
a
  10
61.72966
  20
6.35208
  30
0.0
  70
0
  0
VERTEX
  8
a
  10
62.58586
  20
6.74485
  30
0.0
  70
0
  0
VERTEX
  8
a
  10
63.31122
  20
7.34584
  30
0.0
  70
0
  0
VERTEX
  8
a
  10
63.85632
  20
8.11409
  30
0.0
  70
0
  0
VERTEX
  8
a
  10
64.18401
  20
8.99724
  30
0.0
  70
0
  0
VERTEX
  8
a
  10
64.37642
  20
9.71614
  30
0.0
  70
0
  0
VERTEX
  8
a
  10
64.98645
  20
11.33365
  30
0.0
  70
0
  0
VERTEX
  8
a
  10
66.00928
  20
12.72732
  30
0.0
  70
0
  0
VERTEX
  8
a
  10
67.36945
  20
13.7943
  30
0.0
  70
0
  0
VERTEX
  8
a
  10
68.96658
  20
14.45585
  30
0.0
  70
0
  0
VERTEX
  8
a
  10
70.68283
  20
14.66317
  30
0.0
  70
0
  0
VERTEX
  8
a
  10
72.39155
  20
14.40095
  30
0.0
  70
0
  0
VERTEX
  8
a
  10
73.96666
  20
13.68854
  30
0.0
  70
0
  0
VERTEX
  8
a
  10
104.18942
  20
20.58669
  30
0.0
  70
0
  0
VERTEX
  8
a
  10
105.29945
  20
21.91196
  30
0.0
  70
0
  0
VERTEX
  8
a
  10
106.72518
  20
22.8896
  30
0.0
  70
0
  0
VERTEX
  8
a
  10
108.36142
  20
23.44746
  30
0.0
  70
0
  0
VERTEX
  8
a
  10
110.08742
  20
23.54439
  30
0.0
  70
0
  0
VERTEX
  8
a
  10
111.77583
  20
23.17324
  30
0.0
  70
0
  0
VERTEX
  8
a
  10
113.30206
  20
22.36138
  30
0.0
  70
0
  0
VERTEX
  8
a
  10
114.55349
  20
21.16873
  30
0.0
  70
0
  0
VERTEX
  8
a
  10
115.03876
  20
20.6045
  30
0.0
  70
0
  0
VERTEX
  8
a
  10
115.71719
  20
19.95099
  30
0.0
  70
0
  0
VERTEX
  8
a
  10
116.54164
  20
19.49533
  30
0.0
  70
0
  0
VERTEX
  8
a
  10
117.45593
  20
19.26858
  30
0.0
  70
0
  0
VERTEX
  8
a
  10
118.39775
  20
19.2862
  30
0.0
  70
0
  0
VERTEX
  8
a
  10
119.30292
  20
19.54697
  30
0.0
  70
0
  0
VERTEX
  8
a
  10
120.10976
  20
20.03314
  30
0.0
  70
0
  0
VERTEX
  8
a
  10
120.76327
  20
20.71156
  30
0.0
  70
0
  0
VERTEX
  8
a
  10
121.21893
  20
21.53601
  30
0.0
  70
0
  0
VERTEX
  8
a
  10
121.44568
  20
22.4503
  30
0.0
  70
0
  0
VERTEX
  8
a
  10
121.42806
  20
23.39213
  30
0.0
  70
0
  0
VERTEX
  8
a
  10
121.16729
  20
24.2973
  30
0.0
  70
0
  0
VERTEX
  8
a
  10
120.68112
  20
25.10413
  30
0.0
  70
0
  0
VERTEX
  8
a
  10
120.23903
  20
25.70279
  30
0.0
  70
0
  0
VERTEX
  8
a
  10
119.35475
  20
27.18823
  30
0.0
  70
0
  0
VERTEX
  8
a
  10
118.90286
  20
28.85685
  30
0.0
  70
0
  0
VERTEX
  8
a
  10
118.91671
  20
30.58552
  30
0.0
  70
0
  0
VERTEX
  8
a
  10
119.39529
  20
32.24668
  30
0.0
  70
0
  0
VERTEX
  8
a
  10
120.30326
  20
33.71776
  30
0.0
  70
0
  0
VERTEX
  8
a
  10
121.57364
  20
34.8902
  30
0.0
  70
0
  0
VERTEX
  8
a
  10
123.11269
  20
35.67749
  30
0.0
  70
0
  0
SEQEND
  0
TEXT
  8
labels
  10
0.0
  20
0.0
  30
0.0
  40
0.1
  1
Chain link:  Hole spacing:20  Width:28 Overall length:8 Corner chamfer :0
  41
1.0
  7
ARIAL
  0
TEXT
  8
labels
  10
0.0
  20
-0.2
  30
0.0
  40
0.1
  1
Chain block: Hole spacing:40  Width:49 Overall length:9 Corner chamfer :0
  41
1.0
  7
ARIAL
  0
ENDSEC
  0
EOF
